<!DOCTYPE svg PUBLIC "-//W3C//DTD SVG 20010904//EN" "http://www.w3.org/TR/2001/REC-SVG-20010904/DTD/svg10.dtd">
<svg version="1.0" xmlns="http://www.w3.org/2000/svg" width="1597px" height="1600px" viewBox="0 0 15970 16000" preserveAspectRatio="xMidYMid meet">
<g id="layer101" fill="#e4c448" stroke="none">
 <path d="M585 15990 c-306 -4 -355 -7 -387 -23 -21 -9 -38 -22 -38 -27 0 -6 -6 -10 -13 -10 -7 0 -23 -11 -34 -24 -28 -31 -77 -116 -68 -116 4 0 2 -6 -4 -14 -7 -8 -14 -25 -16 -38 -3 -12 -8 -34 -11 -48 -12 -45 -13 -271 -2 -263 7 3 8 1 4 -5 -4 -7 -10 -2742 -13 -6080 l-5 -6068 27 -52 c31 -59 85 -115 148 -152 41 -24 46 -25 282 -27 132 -2 331 -3 443 -3 l202 0 0 -955 0 -955 415 0 415 0 0 -300 0 -300 410 0 410 0 0 -259 c0 -227 2 -260 16 -265 9 -3 2380 -6 5270 -6 l5254 0 0 2498 0 2497 347 -8 c508 -12 569 -9 607 28 8 8 18 15 22 15 10 0 52 50 72 85 16 28 17 122 20 1189 1 638 3 1161 5 1162 3 2 870 17 1117 19 205 2 250 6 283 28 60 39 134 129 170 207 24 52 32 120 31 265 0 173 -15 250 -70 380 -16 37 -92 246 -110 300 -7 22 -25 72 -39 110 -25 66 -71 190 -137 370 -16 44 -38 107 -50 140 -11 33 -26 72 -34 88 -8 15 -12 27 -8 27 4 0 1 6 -5 13 -6 8 -20 40 -30 73 -48 145 -102 289 -111 298 -6 6 -10 19 -10 31 0 12 -4 25 -8 31 -4 5 -14 27 -21 49 -7 22 -16 49 -21 60 -5 11 -29 79 -55 150 -67 189 -67 189 -77 199 -4 6 -8 19 -8 31 0 12 -4 25 -9 31 -5 5 -14 27 -20 49 -7 22 -16 49 -20 60 -5 11 -16 40 -26 65 -9 25 -21 53 -26 62 -5 10 -9 26 -9 36 0 10 -4 22 -8 28 -4 5 -14 27 -21 49 -7 22 -23 67 -36 100 -36 90 -121 325 -135 370 -7 22 -16 45 -20 50 -5 6 -20 46 -34 90 -15 44 -31 89 -36 100 -5 11 -18 47 -30 80 -12 33 -33 92 -46 130 -27 74 -41 109 -55 137 -5 10 -9 24 -9 32 0 7 -11 39 -25 70 -14 31 -25 57 -24 59 1 5 -29 86 -76 206 -14 36 -25 69 -25 75 0 6 -23 70 -51 141 -28 72 -57 150 -65 175 -8 25 -19 54 -24 65 -8 19 -32 86 -66 185 -9 25 -20 49 -25 54 -5 6 -9 18 -9 28 0 11 -9 38 -20 60 -11 23 -20 47 -20 54 0 7 -12 41 -26 76 -14 35 -30 72 -34 83 -5 11 -18 49 -30 85 -12 36 -41 117 -65 180 -24 63 -62 167 -85 230 -23 63 -45 124 -50 135 -4 11 -20 54 -35 95 -15 41 -36 94 -46 117 -10 24 -19 50 -19 58 0 8 -11 38 -25 67 -14 28 -25 56 -25 61 0 10 -40 121 -86 242 -23 62 -48 128 -83 228 -42 116 -64 173 -77 204 -8 17 -14 37 -14 45 0 8 -3 18 -7 21 -6 7 -19 41 -82 222 -18 50 -43 117 -56 150 -13 33 -49 130 -80 215 -31 85 -71 196 -90 246 -47 131 -83 181 -166 235 l-47 30 -6019 -3 c-3310 -2 -6175 -5 -6368 -8z m629 -3820 c3 -14 -3 -7 -14 15 -11 22 -19 47 -19 55 1 17 23 -32 33 -70z m181 -490 c92 -250 175 -477 184 -505 34 -94 142 -390 161 -440 10 -27 35 -95 55 -150 20 -55 45 -122 55 -150 10 -27 35 -95 55 -150 21 -55 39 -104 42 -110 2 -5 -7 3 -20 19 -25 29 -47 87 -47 125 0 11 -11 31 -25 42 -17 15 -29 43 -40 93 -9 39 -34 111 -56 160 -22 49 -74 188 -115 310 -124 366 -189 544 -240 654 -14 30 -30 77 -36 105 -6 29 -28 92 -50 141 -22 49 -51 132 -65 185 -13 53 -26 105 -30 116 -3 11 -3 18 0 15 3 -3 81 -210 172 -460z m11033 -4187 c-10 -2 -28 -2 -40 0 -13 2 -5 4 17 4 22 1 32 -1 23 -4z m270 0 c-10 -2 -26 -2 -35 0 -10 3 -2 5 17 5 19 0 27 -2 18 -5z m470 0 c-10 -2 -28 -2 -40 0 -13 2 -5 4 17 4 22 1 32 -1 23 -4z m435 -10 c-62 -2 -165 -2 -230 0 -65 1 -14 3 112 3 127 0 180 -2 118 -3z m193 -11 c-27 -2 -52 0 -57 5 -4 4 18 6 49 3 l57 -5 -49 -3z m542 1 c-10 -2 -26 -2 -35 0 -10 3 -2 5 17 5 19 0 27 -2 18 -5z m-115 -10 c-13 -2 -35 -2 -50 0 -16 2 -5 4 22 4 28 0 40 -2 28 -4z"/>
 </g>
<g id="layer102" fill="#ccbb84" stroke="none">
 <path d="M1101 6803 l-1 -5673 415 0 415 0 0 -300 0 -300 410 0 410 0 0 -259 c0 -227 2 -260 16 -265 9 -3 2380 -6 5270 -6 l5254 0 0 3739 0 3739 -22 8 c-13 4 -2311 9 -5107 10 l-5083 3 -37 24 c-53 36 -103 87 -147 153 -68 100 -106 192 -294 704 -23 63 -56 151 -72 195 -16 44 -33 91 -38 105 -4 14 -19 54 -33 90 -39 104 -254 692 -307 840 -26 74 -71 200 -99 280 -29 80 -56 154 -60 165 -5 11 -17 40 -27 65 -10 25 -28 59 -40 75 -25 35 -44 88 -44 122 0 13 -11 33 -25 44 -17 15 -29 43 -40 93 -9 39 -34 111 -56 160 -22 49 -74 188 -115 310 -124 366 -189 544 -240 654 -14 30 -30 77 -36 105 -6 29 -28 92 -50 141 -22 49 -53 140 -69 203 -17 64 -36 127 -43 142 -7 14 -28 76 -46 136 -17 61 -36 115 -40 120 -4 6 -10 19 -13 30 -2 11 -5 -2533 -6 -5652z"/>
 <path d="M15478 7483 c28 -2 76 -2 105 0 28 2 5 3 -53 3 -58 0 -81 -1 -52 -3z"/>
 <path d="M14988 7473 c12 -2 30 -2 40 0 9 3 -1 5 -23 4 -22 0 -30 -2 -17 -4z"/>
 </g>
<g id="layer103" fill="#eee9d6" stroke="none">
 <path d="M1950 10020 c-1 -63 -3 -155 -5 -205 -2 -49 -6 -2159 -10 -4687 l-7 -4598 411 0 411 0 0 -259 c0 -227 2 -260 16 -265 9 -3 2380 -6 5270 -6 l5254 0 0 3739 0 3739 -22 8 c-13 4 -2307 9 -5098 10 -2791 2 -5084 5 -5096 8 -31 8 -105 72 -152 131 -40 51 -113 179 -127 225 -4 14 -27 66 -50 115 -23 50 -52 117 -63 150 -52 151 -136 386 -200 560 -127 343 -360 990 -397 1100 -7 22 -28 78 -45 125 -17 47 -40 109 -50 137 -35 99 -39 96 -40 -27z"/>
 <path d="M15503 7483 c26 -2 67 -2 90 0 23 2 2 3 -48 3 -49 0 -68 -1 -42 -3z"/>
 </g>

</svg>