<!DOCTYPE svg PUBLIC "-//W3C//DTD SVG 20010904//EN" "http://www.w3.org/TR/2001/REC-SVG-20010904/DTD/svg10.dtd">
<svg version="1.0" xmlns="http://www.w3.org/2000/svg" width="153px" height="214px" viewBox="0 0 1530 2140" preserveAspectRatio="xMidYMid meet">
<g id="layer101" fill="#09161e" stroke="none">
 <path d="M638 2112 c-26 -15 -77 -45 -115 -66 -37 -22 -86 -52 -108 -66 -22 -15 -62 -39 -90 -54 -139 -75 -138 -74 -131 -122 l6 -44 -78 0 c-91 0 -122 -15 -122 -60 0 -54 127 -141 287 -198 76 -27 78 -29 75 -58 -2 -24 2 -33 23 -42 40 -19 87 -14 125 11 19 13 49 27 66 30 18 3 43 9 58 13 l26 6 0 -381 c0 -367 1 -383 21 -426 20 -43 41 -66 99 -108 19 -14 22 -19 11 -24 -35 -14 -101 -88 -117 -129 -14 -38 -15 -51 -5 -85 25 -83 127 -160 258 -194 75 -20 260 -20 333 0 30 8 56 15 58 15 1 0 2 -22 2 -49 0 -59 22 -81 82 -81 64 0 78 24 78 132 0 78 4 99 27 146 25 51 26 58 14 101 -7 25 -19 53 -27 62 -9 11 -14 39 -14 91 0 63 4 80 23 104 l22 29 0 495 0 495 -22 32 c-21 29 -23 42 -23 176 0 139 -1 147 -22 161 -35 25 -87 19 -137 -14 -52 -35 -69 -37 -105 -9 -41 33 -179 88 -283 115 -135 34 -232 33 -295 -4z m682 -277 c0 -9 -6 -12 -15 -9 -8 4 -12 10 -9 15 8 14 24 10 24 -6z"/>
 </g>
<g id="layer102" fill="#373735" stroke="none">
 <path d="M638 2112 c-26 -15 -77 -45 -115 -66 -37 -22 -86 -52 -108 -66 -22 -15 -62 -39 -90 -54 -139 -75 -138 -74 -131 -122 l6 -44 -78 0 c-91 0 -122 -15 -122 -60 0 -54 127 -141 287 -198 76 -27 78 -29 75 -58 -2 -24 2 -33 23 -42 40 -19 87 -14 125 11 19 13 49 27 66 30 18 3 43 9 58 13 l26 6 0 -381 c0 -367 1 -383 21 -426 20 -43 41 -66 99 -108 19 -14 22 -19 11 -24 -35 -14 -101 -88 -117 -129 -14 -38 -15 -51 -5 -85 25 -83 127 -160 258 -194 75 -20 260 -20 333 0 30 8 56 15 58 15 1 0 2 -22 2 -49 0 -35 5 -52 18 -62 14 -11 15 -11 5 1 -7 8 -13 36 -13 62 0 46 2 48 37 63 20 9 52 27 70 41 l32 24 4 -87 3 -88 2 94 c2 79 6 103 29 149 25 51 26 58 14 101 -7 25 -19 53 -27 62 -9 11 -14 39 -14 91 0 63 4 80 23 104 l22 29 0 495 0 495 -22 32 c-21 29 -23 42 -23 176 0 126 -2 146 -17 158 -16 13 -17 12 -5 -2 9 -12 12 -53 10 -149 l-3 -132 -25 22 c-14 12 -44 31 -68 41 l-43 20 3 97 c2 74 6 96 16 94 8 -1 11 2 7 7 -3 6 -21 0 -42 -14 -44 -30 -63 -31 -97 -4 -41 33 -179 88 -283 115 -135 34 -232 33 -295 -4z m682 -277 c0 -9 -6 -12 -15 -9 -8 4 -12 10 -9 15 8 14 24 10 24 -6z m150 -1317 l0 -38 -35 22 c-40 27 -43 36 -13 47 40 15 48 10 48 -31z"/>
 </g>
<g id="layer103" fill="#df8403" stroke="none">
 <path d="M638 2112 c-26 -15 -77 -45 -115 -66 -37 -22 -86 -52 -108 -66 -22 -15 -62 -39 -90 -54 -139 -75 -138 -74 -131 -122 l6 -44 -78 0 c-91 0 -122 -15 -122 -60 0 -54 127 -141 287 -198 76 -27 78 -29 75 -58 -2 -24 2 -33 23 -42 40 -19 87 -14 125 11 19 13 49 27 66 30 18 3 43 9 58 13 l26 6 0 -381 c0 -367 1 -383 21 -426 20 -43 41 -66 99 -108 19 -14 22 -19 11 -24 -35 -14 -101 -88 -117 -129 -22 -57 -8 -108 43 -165 76 -84 208 -129 376 -129 215 0 377 75 423 196 14 38 15 51 5 87 -14 45 -68 109 -114 134 l-29 14 44 28 c23 15 57 45 73 67 l30 39 3 460 c2 253 0 480 -3 504 -9 57 -74 123 -168 170 -58 30 -66 37 -53 47 12 8 16 29 16 84 0 65 -2 71 -17 65 -42 -17 -55 -16 -91 8 -100 69 -324 137 -451 137 -64 0 -83 -5 -123 -28z m584 -1203 c221 -47 297 -229 136 -323 -42 -24 -45 -24 -103 -11 -77 19 -243 19 -320 1 -69 -17 -88 -10 -143 46 -63 66 -61 136 5 200 40 39 114 77 173 89 56 11 195 10 252 -2z"/>
 </g>
<g id="layer104" fill="#e1a854" stroke="none">
 <path d="M638 2112 c-26 -15 -77 -45 -115 -66 -37 -22 -86 -52 -108 -66 -22 -15 -62 -39 -90 -54 -139 -75 -138 -74 -131 -122 l6 -44 -78 0 c-91 0 -122 -15 -122 -60 0 -54 127 -141 287 -198 76 -27 78 -29 75 -58 -2 -24 2 -33 23 -42 40 -19 87 -14 125 11 19 13 49 27 66 30 18 3 43 9 58 13 l26 6 0 -381 c0 -367 1 -383 21 -426 20 -43 41 -66 99 -108 19 -14 22 -19 11 -24 -35 -14 -101 -88 -117 -129 -22 -57 -8 -108 43 -165 76 -84 208 -129 376 -129 215 0 377 75 423 196 14 38 15 51 5 87 -14 45 -68 109 -114 134 l-29 14 44 28 c89 57 131 155 92 217 -18 30 -102 113 -116 115 -13 2 -22 5 -48 16 -213 90 -411 78 -589 -37 l-61 -39 -6 24 c-3 13 -3 28 0 33 3 6 -1 90 -8 188 -8 99 -17 260 -21 359 -5 176 -5 181 19 231 37 78 116 129 254 164 98 25 215 25 312 1 53 -14 69 -15 56 -5 -17 12 -18 14 -3 20 14 5 17 21 17 81 0 68 -2 74 -17 68 -42 -17 -55 -16 -91 8 -100 69 -324 137 -451 137 -64 0 -83 -5 -123 -28z m584 -1203 c152 -32 243 -128 216 -226 -12 -46 -31 -68 -83 -98 -39 -23 -42 -23 -100 -10 -77 19 -243 19 -320 1 -71 -17 -91 -10 -148 53 -37 41 -42 58 -38 116 5 61 116 144 221 166 56 11 194 10 252 -2z"/>
 <path d="M1525 1260 c0 -206 1 -291 2 -188 2 104 2 272 0 375 -1 104 -2 19 -2 -187z"/>
 <path d="M1523 820 c0 -30 2 -43 4 -27 2 15 2 39 0 55 -2 15 -4 2 -4 -28z"/>
 </g>
<g id="layer105" fill="#aeaeae" stroke="none">
 <path d="M638 2112 c-26 -15 -77 -45 -115 -66 -37 -22 -86 -52 -108 -66 -22 -15 -62 -39 -90 -54 -139 -75 -138 -74 -131 -122 l6 -44 -78 0 c-91 0 -122 -15 -122 -60 0 -54 127 -141 287 -198 76 -27 78 -29 75 -58 -2 -24 2 -33 23 -42 40 -18 87 -14 125 11 19 13 61 29 93 36 l57 12 0 80 c0 145 52 210 225 280 36 14 89 21 195 26 98 4 120 1 215 -27 27 -9 28 -8 11 5 -17 13 -17 15 -3 21 14 5 17 21 17 81 0 68 -2 74 -17 68 -42 -17 -55 -16 -91 8 -100 69 -324 137 -451 137 -64 0 -83 -5 -123 -28z"/>
 <path d="M661 964 c1 -153 4 -196 10 -159 8 48 3 355 -7 364 -2 2 -3 -90 -3 -205z"/>
 <path d="M930 574 c-30 -8 -65 -18 -77 -21 -13 -3 -20 -9 -17 -14 7 -12 -3 -11 -26 1 -16 8 -18 8 -14 -5 4 -8 1 -15 -5 -15 -24 0 -100 -83 -117 -126 -22 -57 -8 -108 43 -165 76 -84 208 -129 376 -129 123 0 201 16 286 60 159 81 193 210 81 314 -25 24 -56 47 -68 50 -12 4 -22 11 -22 16 0 4 -12 10 -27 13 -16 3 -55 13 -88 21 -76 20 -250 20 -325 0z"/>
 </g>
<g id="layer106" fill="#e4c498" stroke="none">
 <path d="M638 2112 c-26 -15 -77 -45 -115 -66 -37 -22 -86 -52 -108 -66 -22 -15 -62 -39 -90 -54 -139 -75 -138 -74 -131 -122 l6 -44 -78 0 c-91 0 -122 -15 -122 -60 0 -54 127 -141 287 -198 76 -27 78 -29 75 -58 -2 -24 2 -33 23 -42 40 -18 87 -14 125 11 19 13 61 29 93 36 l57 12 0 80 c0 145 52 210 225 280 36 14 89 21 195 26 98 4 120 1 215 -27 27 -9 28 -8 11 5 -17 13 -17 15 -3 21 14 5 17 21 17 81 0 68 -2 74 -17 68 -42 -17 -55 -16 -91 8 -100 69 -324 137 -451 137 -64 0 -83 -5 -123 -28z"/>
 <path d="M661 964 c1 -153 4 -196 10 -159 8 48 3 355 -7 364 -2 2 -3 -90 -3 -205z"/>
 <path d="M993 446 c-170 -43 -214 -168 -86 -243 136 -79 343 -57 430 46 50 59 11 138 -89 181 -64 27 -182 35 -255 16z"/>
 </g>
<g id="layer107" fill="#dddddc" stroke="none">
 <path d="M638 2112 c-26 -15 -77 -45 -115 -66 -37 -22 -86 -52 -108 -66 -22 -15 -62 -39 -90 -54 -139 -75 -138 -74 -131 -122 l6 -44 -78 0 c-91 0 -122 -15 -122 -60 0 -54 127 -141 287 -198 76 -27 78 -29 75 -58 -2 -24 2 -33 23 -42 40 -18 87 -14 125 11 19 13 61 29 93 36 l57 12 0 89 c0 72 4 98 22 135 12 25 26 45 30 45 7 0 35 21 63 48 8 6 21 12 29 12 9 0 16 5 16 10 0 6 11 10 25 10 14 0 25 5 25 10 0 6 14 10 30 10 17 0 30 5 30 10 0 15 313 13 328 -2 9 -9 17 -8 37 2 23 12 25 18 25 88 0 67 -2 73 -17 67 -42 -17 -55 -16 -91 8 -100 69 -324 137 -451 137 -64 0 -83 -5 -123 -28z"/>
 <path d="M993 446 c-170 -43 -214 -168 -86 -243 136 -79 343 -57 430 46 50 59 11 138 -89 181 -64 27 -182 35 -255 16z"/>
 </g>

</svg>