<!DOCTYPE svg PUBLIC "-//W3C//DTD SVG 20010904//EN" "http://www.w3.org/TR/2001/REC-SVG-20010904/DTD/svg10.dtd">
<svg version="1.0" xmlns="http://www.w3.org/2000/svg" width="225px" height="256px" viewBox="0 0 2250 2560" preserveAspectRatio="xMidYMid meet">
<g id="layer101" fill="#3b5e79" stroke="none">
 <path d="M505 2550 c3 -5 2 -10 -4 -10 -6 0 -17 -10 -25 -22 -13 -21 -129 -692 -237 -1368 -23 -146 -44 -270 -46 -276 -2 -7 -26 -14 -52 -18 -66 -9 -84 -31 -82 -101 3 -149 62 -265 181 -359 102 -79 229 -116 405 -116 l102 0 6 -45 c13 -90 72 -173 150 -211 49 -23 59 -24 252 -24 l202 0 61 39 c71 46 118 117 128 193 l7 48 106 0 c58 0 138 7 176 15 151 32 300 139 358 257 26 55 57 175 57 223 0 41 -40 76 -93 82 -38 5 -48 10 -52 27 -9 36 -74 420 -106 626 -85 543 -162 987 -175 1008 -8 12 -19 22 -25 22 -6 0 -7 5 -4 10 4 7 -213 10 -645 10 -432 0 -649 -3 -645 -10z m1212 -215 c13 -70 74 -425 183 -1060 32 -187 61 -357 65 -377 l7 -38 -821 0 c-451 0 -821 2 -821 5 0 3 27 164 61 357 33 194 85 495 115 668 30 173 62 359 71 412 12 71 20 98 32 101 9 2 259 4 556 3 l540 -1 12 -70z m-307 -2085 c0 -44 -45 -89 -105 -105 -30 -7 -101 -12 -175 -11 -102 1 -132 5 -164 21 -43 22 -71 55 -80 98 l-6 27 265 0 265 0 0 -30z"/>
 <path d="M751 2134 c-12 -15 -21 -36 -21 -48 0 -11 -20 -248 -45 -526 -44 -495 -45 -505 -27 -530 24 -32 71 -37 102 -12 22 18 24 33 46 268 13 137 28 335 34 439 5 105 14 230 20 279 8 75 7 95 -7 123 -13 28 -21 33 -48 33 -24 0 -39 -7 -54 -26z"/>
 <path d="M1100 2140 c-20 -20 -20 -33 -20 -560 0 -527 0 -540 20 -560 26 -26 74 -26 100 0 20 20 20 33 20 560 0 527 0 540 -20 560 -11 11 -33 20 -50 20 -17 0 -39 -9 -50 -20z"/>
 <path d="M1448 2143 c-8 -10 -17 -25 -21 -34 -4 -13 70 -895 87 -1032 6 -50 31 -77 71 -77 32 0 56 19 68 52 6 16 -75 975 -88 1042 -3 16 -13 38 -22 48 -21 23 -75 23 -95 1z"/>
 </g>
<g id="layer102" fill="#376084" stroke="none">
 <path d="M505 2550 c3 -5 2 -10 -4 -10 -6 0 -17 -10 -25 -22 -13 -21 -129 -692 -237 -1368 -23 -146 -44 -270 -46 -276 -2 -7 -26 -14 -52 -18 -66 -9 -84 -31 -82 -101 3 -149 62 -265 181 -359 102 -80 229 -116 406 -116 l101 0 7 -50 c5 -34 11 -48 18 -44 7 4 8 3 4 -4 -18 -30 59 -125 127 -158 49 -23 59 -24 252 -24 l202 0 61 39 c71 46 118 117 128 193 l7 48 106 0 c58 0 138 7 176 15 77 16 211 80 229 107 6 10 16 18 23 18 17 0 77 76 107 136 25 50 56 171 56 219 0 41 -40 76 -93 82 -38 5 -48 10 -52 27 -9 36 -74 420 -106 626 -65 420 -121 756 -126 770 -4 8 -5 19 -4 23 1 5 -6 52 -16 105 -12 71 -23 103 -39 119 -12 12 -19 24 -16 27 3 3 -288 6 -647 6 -432 0 -650 -3 -646 -10z m1209 -154 c-3 -7 9 -91 25 -187 46 -261 94 -545 161 -937 34 -194 63 -367 67 -383 l6 -29 -822 0 c-451 0 -821 2 -821 5 0 3 27 164 61 357 33 194 85 495 115 668 30 173 62 359 71 412 12 71 20 98 32 101 9 2 262 5 563 5 436 0 546 -2 542 -12z m-304 -2146 c0 -44 -45 -89 -105 -105 -30 -7 -101 -12 -175 -11 -102 1 -132 5 -164 21 -43 22 -71 55 -80 98 l-6 27 265 0 265 0 0 -30z"/>
 <path d="M751 2134 c-12 -15 -21 -36 -21 -48 0 -11 -20 -248 -45 -526 -44 -495 -45 -505 -27 -530 24 -32 71 -37 102 -12 22 18 24 33 46 268 13 137 28 335 34 439 5 105 14 230 20 279 8 75 7 95 -7 123 -13 28 -21 33 -48 33 -24 0 -39 -7 -54 -26z"/>
 <path d="M1100 2140 c-20 -20 -20 -33 -20 -560 0 -527 0 -540 20 -560 26 -26 74 -26 100 0 20 20 20 33 20 560 0 527 0 540 -20 560 -11 11 -33 20 -50 20 -17 0 -39 -9 -50 -20z"/>
 <path d="M1448 2143 c-8 -10 -17 -25 -21 -34 -4 -13 70 -895 87 -1032 6 -50 31 -77 71 -77 32 0 56 19 68 52 6 16 -75 975 -88 1042 -3 16 -13 38 -22 48 -21 23 -75 23 -95 1z"/>
 </g>
<g id="layer103" fill="#45647c" stroke="none">
 <path d="M505 2550 c3 -5 2 -10 -4 -10 -6 0 -17 -10 -25 -22 -13 -21 -129 -692 -237 -1368 -23 -146 -44 -270 -46 -276 -2 -7 -26 -14 -52 -18 -66 -9 -84 -31 -82 -101 3 -149 62 -265 181 -359 102 -79 229 -116 405 -116 l102 0 6 -45 c13 -90 72 -173 150 -211 49 -23 59 -24 252 -24 l202 0 61 39 c71 46 118 117 128 193 l7 48 106 0 c58 0 138 7 176 15 77 16 211 80 229 107 6 10 16 18 23 18 17 0 77 76 107 136 25 50 56 171 56 219 0 41 -40 76 -93 82 -38 5 -48 10 -52 27 -9 36 -74 420 -106 626 -65 420 -121 756 -126 770 -4 8 -5 19 -4 23 1 5 -6 52 -16 105 -12 71 -23 103 -39 119 -12 12 -19 24 -16 27 3 3 -288 6 -647 6 -432 0 -650 -3 -646 -10z m22 -97 c-4 -3 -7 0 -7 7 0 7 3 10 7 7 3 -4 3 -10 0 -14z m80 -30 c-4 -3 -10 -3 -14 0 -3 4 0 7 7 7 7 0 10 -3 7 -7z m1130 -10 c-4 -3 -7 0 -7 7 0 7 3 10 7 7 3 -4 3 -10 0 -14z m-23 -17 c-3 -7 9 -91 25 -187 46 -261 94 -545 161 -937 34 -194 63 -367 67 -383 l6 -29 -822 0 c-451 0 -821 2 -821 5 0 3 27 164 61 357 33 194 85 495 115 668 30 173 62 359 71 412 12 71 20 98 32 101 9 2 262 5 563 5 436 0 546 -2 542 -12z m113 -443 c-4 -3 -7 0 -7 7 0 7 3 10 7 7 3 -4 3 -10 0 -14z m120 -250 c-4 -3 -7 0 -7 7 0 7 3 10 7 7 3 -4 3 -10 0 -14z m-1500 -40 c-4 -3 -7 0 -7 7 0 7 3 10 7 7 3 -4 3 -10 0 -14z m-90 -420 c-4 -3 -10 -3 -14 0 -3 4 0 7 7 7 7 0 10 -3 7 -7z m1670 -180 c-4 -3 -7 0 -7 7 0 7 3 10 7 7 3 -4 3 -10 0 -14z m-1720 -220 c-4 -3 -10 -3 -14 0 -3 4 0 7 7 7 7 0 10 -3 7 -7z m1878 -12 c3 -5 2 -12 -3 -15 -5 -3 -9 1 -9 9 0 17 3 19 12 6z m-2038 -18 c-4 -3 -7 0 -7 7 0 7 3 10 7 7 3 -4 3 -10 0 -14z m213 13 c0 -2 -8 -10 -17 -17 -16 -13 -17 -12 -4 4 13 16 21 21 21 13z m1745 -24 c-3 -3 -11 0 -18 7 -9 10 -8 11 6 5 10 -3 15 -9 12 -12z m82 -149 c-4 -3 -7 0 -7 7 0 7 3 10 7 7 3 -4 3 -10 0 -14z m-1980 -70 c-4 -3 -10 -3 -14 0 -3 4 0 7 7 7 7 0 10 -3 7 -7z m1868 -3 c3 -5 4 -10 1 -10 -3 0 -8 5 -11 10 -3 6 -4 10 -1 10 3 0 8 -4 11 -10z m-1845 -4 c0 -3 -5 -8 -12 -12 -7 -4 -8 -3 -4 4 7 12 16 16 16 8z m-44 -42 c1 -9 0 -13 -4 -10 -3 4 -7 14 -8 22 -1 9 0 13 4 10 3 -4 7 -14 8 -22z m79 6 c3 -5 4 -10 1 -10 -3 0 -8 5 -11 10 -3 6 -4 10 -1 10 3 0 8 -4 11 -10z m1856 -17 c13 -16 12 -17 -3 -4 -10 7 -18 15 -18 17 0 8 8 3 21 -13z m-124 -18 c0 -8 -4 -12 -9 -9 -5 3 -6 10 -3 15 9 13 12 11 12 -6z m-1807 1 c0 -3 -5 -8 -12 -12 -7 -4 -8 -3 -4 4 7 12 16 16 16 8z m77 -13 c-4 -3 -10 -3 -14 0 -3 4 0 7 7 7 7 0 10 -3 7 -7z m-2 -42 c3 -5 2 -12 -3 -15 -5 -3 -9 1 -9 9 0 17 3 19 12 6z m142 2 c-4 -3 -10 -3 -14 0 -3 4 0 7 7 7 7 0 10 -3 7 -7z m-107 -7 c0 -3 -5 -8 -12 -12 -7 -4 -8 -3 -4 4 7 12 16 16 16 8z m1745 -6 c3 -5 4 -10 1 -10 -3 0 -8 5 -11 10 -3 6 -4 10 -1 10 3 0 8 -4 11 -10z m-138 -17 c-4 -3 -10 -3 -14 0 -3 4 0 7 7 7 7 0 10 -3 7 -7z m-1530 -10 c-4 -3 -10 -3 -14 0 -3 4 0 7 7 7 7 0 10 -3 7 -7z m-8 -46 c0 -9 -2 -8 -6 1 -2 6 -10 9 -15 6 -7 -4 -8 -2 -4 5 9 13 26 5 25 -12z m1628 6 c-4 -3 -10 -3 -14 0 -3 4 0 7 7 7 7 0 10 -3 7 -7z m-1580 -10 c-4 -3 -10 -3 -14 0 -3 4 0 7 7 7 7 0 10 -3 7 -7z m1480 0 c-4 -3 -10 -3 -14 0 -3 4 0 7 7 7 7 0 10 -3 7 -7z m-20 -20 c-4 -3 -10 -3 -14 0 -3 4 0 7 7 7 7 0 10 -3 7 -7z m-467 -93 c0 -44 -45 -89 -105 -105 -30 -7 -101 -12 -175 -11 -102 1 -132 5 -164 21 -43 22 -71 55 -80 98 l-6 27 265 0 265 0 0 -30z m27 -25 c0 -8 -4 -12 -9 -9 -5 3 -6 10 -3 15 9 13 12 11 12 -6z m-651 -33 c-17 -16 -18 -16 -5 5 7 12 15 20 18 17 3 -2 -3 -12 -13 -22z m679 -52 c3 -5 4 -10 1 -10 -3 0 -8 5 -11 10 -3 6 -4 10 -1 10 3 0 8 -4 11 -10z m-478 -17 c-4 -3 -10 -3 -14 0 -3 4 0 7 7 7 7 0 10 -3 7 -7z m350 0 c-4 -3 -10 -3 -14 0 -3 4 0 7 7 7 7 0 10 -3 7 -7z m-100 -20 c-4 -3 -10 -3 -14 0 -3 4 0 7 7 7 7 0 10 -3 7 -7z m30 -10 c-4 -3 -10 -3 -14 0 -3 4 0 7 7 7 7 0 10 -3 7 -7z m16 -50 c-7 -2 -19 -2 -25 0 -7 3 -2 5 12 5 14 0 19 -2 13 -5z"/>
 <path d="M751 2134 c-12 -15 -21 -36 -21 -48 0 -11 -20 -248 -45 -526 -44 -495 -45 -505 -27 -530 24 -32 71 -37 102 -12 22 18 24 33 46 268 13 137 28 335 34 439 5 105 14 230 20 279 8 75 7 95 -7 123 -13 28 -21 33 -48 33 -24 0 -39 -7 -54 -26z m72 -29 c-3 -9 -8 -14 -10 -11 -3 3 -2 9 2 15 9 16 15 13 8 -4z"/>
 <path d="M1100 2140 c-20 -20 -20 -33 -20 -560 0 -527 0 -540 20 -560 26 -26 74 -26 100 0 20 20 20 33 20 560 0 527 0 540 -20 560 -11 11 -33 20 -50 20 -17 0 -39 -9 -50 -20z m57 -27 c-4 -3 -10 -3 -14 0 -3 4 0 7 7 7 7 0 10 -3 7 -7z m0 -30 c-4 -3 -10 -3 -14 0 -3 4 0 7 7 7 7 0 10 -3 7 -7z"/>
 <path d="M1448 2143 c-8 -10 -17 -25 -21 -34 -4 -13 70 -895 87 -1032 6 -50 31 -77 71 -77 32 0 56 19 68 52 6 16 -75 975 -88 1042 -3 16 -13 38 -22 48 -21 23 -75 23 -95 1z m7 -43 c3 -5 4 -10 1 -10 -3 0 -8 5 -11 10 -3 6 -4 10 -1 10 3 0 8 -4 11 -10z"/>
 </g>
<g id="layer104" fill="#3e6889" stroke="none">
 <path d="M520 2550 c-11 -7 -12 -11 0 -24 11 -14 11 -16 -2 -11 -8 3 -21 -1 -28 -9 -7 -9 -17 -13 -24 -9 -8 4 -8 3 0 -6 14 -15 2 -90 -17 -103 -10 -7 -11 -11 -2 -14 16 -7 5 -75 -15 -91 -8 -7 -12 -21 -9 -33 3 -11 1 -23 -4 -26 -5 -3 -9 -12 -9 -20 0 -8 4 -13 8 -10 5 3 7 -5 6 -17 -1 -12 -3 -29 -3 -37 -1 -13 -2 -13 -11 0 -6 10 -7 3 -3 -24 5 -30 3 -37 -6 -31 -10 6 -11 3 -3 -11 11 -22 5 -47 -9 -38 -13 8 -11 -10 3 -24 9 -9 7 -13 -5 -18 -14 -5 -16 -14 -10 -47 4 -29 3 -38 -5 -33 -8 5 -10 -2 -5 -25 4 -23 3 -30 -5 -25 -7 4 -12 1 -12 -9 0 -10 5 -13 11 -9 7 4 4 -7 -6 -24 -15 -24 -16 -34 -7 -45 10 -12 9 -16 -2 -20 -11 -4 -13 -16 -9 -43 4 -27 3 -35 -5 -30 -7 4 -12 2 -12 -3 0 -6 4 -11 9 -11 5 0 9 -12 9 -26 -1 -17 -5 -24 -14 -20 -8 3 -14 1 -14 -4 0 -6 4 -10 9 -10 4 0 5 -19 1 -42 -9 -48 -12 -54 -22 -51 -5 2 -8 -4 -8 -13 0 -8 4 -12 10 -9 11 7 13 -6 4 -29 -3 -9 -10 -14 -14 -11 -7 5 -4 -52 5 -98 3 -13 -1 -17 -12 -13 -13 5 -15 0 -10 -36 4 -27 2 -37 -4 -27 -7 12 -9 11 -9 -3 0 -9 6 -19 13 -22 9 -3 7 -9 -5 -19 -21 -17 -23 -28 -5 -24 6 1 10 -5 8 -13 -2 -8 -4 -22 -6 -30 -1 -8 -8 -14 -14 -13 -14 4 -15 -34 -1 -42 13 -8 2 -47 -15 -57 -9 -6 -11 -21 -8 -49 4 -24 2 -40 -3 -36 -5 3 -9 -14 -9 -38 0 -24 3 -41 7 -38 5 2 8 0 8 -6 0 -10 -19 -26 -32 -26 -12 0 -21 -15 -9 -15 7 0 10 -4 7 -9 -4 -5 -14 -8 -24 -6 -9 2 -21 4 -25 4 -5 1 -5 6 -2 11 3 6 2 10 -4 10 -5 0 -13 -5 -16 -10 -4 -6 -14 -9 -22 -8 -17 3 -23 -15 -28 -88 -1 -23 -6 -48 -10 -55 -5 -7 -4 -14 3 -17 7 -2 10 -13 6 -27 -5 -20 -3 -24 13 -21 21 4 25 -17 8 -43 -5 -9 -4 -12 2 -8 6 4 16 0 22 -7 9 -11 9 -16 0 -22 -8 -5 -9 -3 -4 6 6 9 4 11 -5 5 -10 -6 -10 -11 3 -20 9 -7 14 -14 11 -17 -3 -4 3 -5 13 -4 12 0 19 -7 21 -22 2 -12 8 -22 13 -22 17 0 40 -28 29 -35 -6 -4 -8 -11 -4 -16 3 -5 9 -7 14 -4 5 3 12 0 15 -6 4 -5 13 -8 20 -5 17 6 39 -20 29 -35 -4 -8 -3 -9 5 -5 19 12 51 -3 45 -22 -5 -13 -4 -14 4 -3 7 10 14 10 30 2 30 -16 34 -14 15 7 -10 11 -22 17 -27 14 -5 -3 -6 0 -2 7 6 8 18 1 42 -23 19 -20 46 -39 59 -42 14 -3 22 -10 19 -15 -3 -5 0 -9 5 -9 6 0 11 4 11 9 0 5 9 7 20 4 11 -3 20 -9 20 -14 0 -5 9 -9 20 -9 11 0 17 5 15 13 -4 9 17 12 85 13 73 0 87 -2 78 -13 -7 -9 -7 -13 0 -13 6 0 13 4 17 10 3 5 12 7 20 4 8 -4 12 -11 9 -16 -4 -6 2 -8 17 -3 18 5 20 4 9 -4 -8 -5 -15 -23 -16 -39 -1 -16 -5 -35 -9 -42 -6 -9 -4 -11 5 -5 10 6 12 4 6 -10 -5 -13 -3 -15 6 -8 16 11 67 8 81 -6 6 -6 3 -9 -9 -7 -11 2 -25 -2 -33 -8 -11 -8 -13 -8 -7 2 4 6 3 12 -2 12 -5 0 -12 -9 -15 -19 -3 -15 -1 -18 11 -14 11 5 13 3 7 -7 -5 -9 -4 -11 3 -6 7 4 16 -2 21 -17 13 -32 108 -82 128 -66 9 8 13 8 13 0 0 -6 -4 -11 -10 -11 -5 0 -10 -4 -10 -10 0 -6 67 -10 181 -10 141 0 179 3 173 13 -5 7 0 6 11 -3 17 -14 18 -13 12 4 -5 13 -3 17 7 13 8 -3 17 -1 19 6 3 9 8 8 21 -2 9 -8 16 -10 14 -5 -5 15 91 106 104 98 6 -4 8 -3 4 4 -3 5 -3 12 1 15 5 2 3 3 -2 1 -6 -1 -12 7 -12 17 -1 15 2 17 15 10 15 -8 17 -3 18 32 2 77 9 100 32 103 11 2 23 0 26 -5 3 -4 -6 -7 -19 -5 -14 1 -23 -1 -21 -5 3 -4 51 -7 108 -8 57 0 88 2 71 4 -58 7 -35 18 36 18 38 0 67 -3 64 -7 -2 -5 1 -8 6 -8 6 0 11 5 11 11 0 6 7 9 14 6 10 -4 13 -1 9 9 -4 10 2 14 20 14 14 0 31 8 36 17 7 12 10 14 11 4 0 -11 3 -11 15 -1 8 7 24 10 36 7 17 -5 18 -3 7 11 -11 13 -11 15 4 9 10 -3 20 -2 24 4 3 6 12 8 19 5 9 -3 11 2 7 16 -4 17 -2 20 11 15 19 -7 37 20 29 42 -3 9 0 11 7 7 19 -12 44 14 30 30 -6 8 -8 14 -4 14 4 0 1 8 -6 17 -10 12 -10 14 -1 9 7 -4 14 -1 18 8 3 8 12 12 20 9 8 -3 12 -9 9 -13 -3 -4 2 -10 10 -13 9 -4 12 -1 9 7 -3 8 0 17 7 22 8 5 10 3 4 -6 -5 -8 -4 -11 3 -7 5 4 8 17 4 29 -3 13 -1 19 5 15 7 -5 9 0 6 13 -3 12 1 22 11 26 9 3 16 10 16 16 0 5 -5 6 -10 3 -11 -7 -13 6 -4 29 3 9 11 13 17 9 7 -4 8 0 2 13 -8 20 -7 102 1 116 3 5 0 7 -7 6 -7 -2 -13 4 -14 12 0 8 -5 15 -12 15 -6 0 -15 3 -19 8 -4 4 -22 7 -41 7 -18 0 -33 5 -33 11 0 5 -4 8 -9 5 -15 -10 -22 25 -9 42 11 13 11 14 -1 7 -11 -7 -13 -1 -8 29 3 22 2 34 -4 31 -5 -4 -9 2 -9 12 0 15 -2 16 -11 3 -8 -12 -9 -11 -6 5 2 11 9 19 15 17 17 -3 15 25 -3 32 -17 6 -21 36 -5 36 6 0 10 7 10 15 0 8 -7 15 -15 15 -13 0 -14 4 -4 21 9 17 8 20 -2 14 -9 -6 -10 2 -5 34 5 31 3 41 -5 35 -8 -5 -10 1 -7 19 3 16 1 24 -5 20 -6 -4 -8 8 -4 35 4 22 3 43 -2 46 -5 3 -7 15 -4 26 3 11 0 27 -7 35 -7 8 -10 21 -7 29 4 10 1 13 -8 10 -9 -4 -14 1 -13 13 0 10 -2 38 -6 61 -5 30 -4 42 3 37 6 -3 11 1 11 10 0 10 -5 13 -12 9 -7 -5 -9 -2 -5 9 3 9 2 17 -3 19 -12 4 -16 95 -5 127 5 16 4 21 -4 17 -6 -4 -11 0 -11 8 0 9 -6 16 -12 16 -7 0 -5 5 5 11 22 13 22 30 0 22 -9 -4 -14 -2 -10 3 3 6 2 27 -3 47 -4 21 -4 39 1 43 5 3 9 10 9 15 0 6 -4 7 -10 4 -13 -8 -21 28 -23 107 -1 36 -5 64 -8 62 -4 -2 -9 8 -12 21 -2 14 0 28 4 31 5 3 9 10 9 16 0 7 -4 7 -13 0 -10 -9 -13 -4 -15 21 -2 41 -2 56 1 87 1 14 -2 24 -8 23 -5 -1 -11 10 -12 24 -1 19 1 22 8 12 7 -11 9 -11 9 4 0 9 -5 17 -11 17 -7 0 -9 11 -5 30 4 23 2 30 -10 30 -13 0 -15 10 -12 49 1 27 1 48 -1 46 -8 -9 -46 26 -46 43 0 16 -39 17 -625 19 -345 1 -632 -2 -640 -7z m37 -7 c-4 -3 -10 -3 -14 0 -3 4 0 7 7 7 7 0 10 -3 7 -7z m18 -73 c3 -5 4 -10 1 -10 -3 0 -8 5 -11 10 -3 6 -4 10 -1 10 3 0 8 -4 11 -10z m-48 -17 c-4 -3 -7 0 -7 7 0 7 3 10 7 7 3 -4 3 -10 0 -14z m20 0 c-4 -3 -7 0 -7 7 0 7 3 10 7 7 3 -4 3 -10 0 -14z m1153 -39 c0 -8 4 -12 10 -9 5 3 12 -4 15 -17 30 -130 33 -153 25 -156 -6 -2 -10 -15 -10 -28 0 -14 4 -23 9 -20 15 10 22 -25 9 -42 -11 -13 -11 -14 1 -7 11 7 13 1 8 -29 -3 -20 -2 -34 3 -31 12 8 22 -27 10 -39 -12 -12 -13 -27 -2 -25 18 3 21 -3 12 -27 -7 -16 -7 -23 0 -19 6 3 10 0 11 -7 0 -7 2 -23 5 -36 2 -14 0 -21 -6 -17 -16 10 -12 -17 5 -29 16 -12 22 -61 10 -90 -6 -15 -5 -17 5 -11 10 6 12 2 8 -18 -3 -15 -1 -24 3 -21 5 3 9 -4 9 -15 0 -10 3 -27 7 -37 4 -12 3 -15 -5 -10 -7 4 -12 1 -12 -8 0 -9 4 -16 9 -16 5 0 11 -9 14 -20 3 -11 1 -18 -4 -14 -5 3 -9 0 -9 -5 0 -6 4 -11 9 -11 5 0 14 -21 21 -47 16 -68 20 -114 9 -107 -5 3 -9 -2 -9 -10 0 -9 4 -16 10 -16 17 0 31 -72 17 -89 -9 -12 -9 -13 1 -7 8 5 12 0 12 -18 0 -13 3 -33 6 -43 5 -15 4 -15 -5 -3 -9 13 -11 13 -11 -2 0 -10 5 -18 11 -18 6 0 9 -9 6 -20 -3 -11 -1 -18 4 -14 5 3 9 0 9 -6 0 -7 7 -10 15 -6 22 8 18 -12 -5 -24 -21 -11 -27 -36 -10 -42 14 -4 31 -66 19 -73 -16 -11 -11 -45 6 -39 13 5 14 2 5 -20 -7 -20 -7 -25 2 -20 8 5 9 -5 5 -34 -3 -28 -2 -40 6 -35 6 4 8 -2 5 -15 -3 -12 -1 -23 6 -26 6 -2 2 -5 -8 -5 -11 -1 -16 -4 -13 -7 3 -4 2 -15 -4 -26 -10 -18 -12 -18 -36 -3 -20 14 -46 16 -132 14 -220 -5 -462 1 -456 11 3 6 -1 10 -10 10 -9 0 -13 -4 -10 -10 3 -5 -2 -10 -12 -10 -10 -1 -201 -1 -424 0 -223 0 -411 0 -418 0 -7 0 -9 5 -6 10 3 6 -1 10 -10 10 -9 0 -13 -4 -10 -10 6 -10 -8 -13 -49 -13 -11 1 -27 -7 -35 -16 -9 -9 -12 -11 -7 -3 7 9 5 16 -3 21 -7 5 -13 12 -14 17 -1 5 -5 8 -8 7 -7 -2 -6 13 6 74 4 24 11 41 15 38 4 -2 5 7 2 22 -3 18 -1 24 7 19 16 -10 13 25 -4 48 -8 11 -15 25 -15 30 0 6 4 5 9 -2 6 -10 10 -7 15 12 3 14 11 26 16 26 6 0 10 5 10 10 0 6 -7 10 -16 10 -11 0 -14 5 -10 16 3 9 6 22 6 31 0 9 6 13 15 9 19 -7 19 13 0 40 -13 19 -12 23 11 43 17 15 23 28 19 39 -8 20 -8 21 -6 45 0 10 4 16 9 14 4 -3 6 20 5 50 -1 44 1 54 13 49 9 -4 14 1 14 14 0 11 -4 20 -9 20 -5 0 -7 9 -4 20 3 11 9 18 13 15 4 -2 5 7 2 22 -4 20 -2 24 8 18 10 -6 12 -1 7 23 -4 19 -2 32 3 32 6 0 10 7 10 15 0 18 -16 20 -23 3 -3 -7 -6 -8 -6 -2 -1 5 8 20 19 32 21 22 28 48 10 37 -16 -10 -12 12 5 29 17 16 21 41 5 31 -6 -3 -10 0 -10 8 0 24 21 77 31 77 16 0 10 29 -11 50 -18 18 -18 24 2 21 4 0 10 15 14 34 4 22 10 32 18 28 8 -5 8 -3 -1 8 -12 15 -6 72 8 64 4 -3 5 11 2 31 -5 30 -3 36 8 29 12 -7 12 -6 1 7 -11 14 -11 18 0 25 8 5 13 29 13 63 1 58 11 146 20 160 3 4 14 6 25 3 13 -3 20 0 20 8 0 12 88 14 536 11 412 -2 534 0 528 9 -4 8 -3 9 4 5 7 -4 12 -14 12 -22z m-1093 9 c-4 -3 -10 -3 -14 0 -3 4 0 7 7 7 7 0 10 -3 7 -7z m1130 -10 c-4 -3 -7 0 -7 7 0 7 3 10 7 7 3 -4 3 -10 0 -14z m90 -460 c-4 -3 -7 0 -7 7 0 7 3 10 7 7 3 -4 3 -10 0 -14z m-1327 -58 c0 -5 -5 -3 -10 5 -5 8 -10 20 -10 25 0 6 5 3 10 -5 5 -8 10 -19 10 -25z m1447 -192 c-4 -3 -7 0 -7 7 0 7 3 10 7 7 3 -4 3 -10 0 -14z m-48 -73 c1 -13 0 -13 -9 0 -5 8 -9 24 -9 35 l0 20 9 -20 c5 -11 9 -27 9 -35z m-1532 -157 c-4 -3 -10 -3 -14 0 -3 4 0 7 7 7 7 0 10 -3 7 -7z m0 -150 c-4 -3 -7 0 -7 7 0 7 3 10 7 7 3 -4 3 -10 0 -14z m20 0 c-4 -3 -7 0 -7 7 0 7 3 10 7 7 3 -4 3 -10 0 -14z m-50 -59 c-3 -3 -12 -4 -19 -1 -8 3 -5 6 6 6 11 1 17 -2 13 -5z m1640 -11 c-4 -3 -7 0 -7 7 0 7 3 10 7 7 3 -4 3 -10 0 -14z m-1624 -10 c-7 -2 -21 -2 -30 0 -10 3 -4 5 12 5 17 0 24 -2 18 -5z m-55 -88 c-3 -3 -9 2 -12 12 -6 14 -5 15 5 6 7 -7 10 -15 7 -18z m1729 -92 c-4 -3 -7 0 -7 7 0 7 3 10 7 7 3 -4 3 -10 0 -14z m-1737 -113 c0 -5 -4 -10 -10 -10 -5 0 -10 5 -10 10 0 6 5 10 10 10 6 0 10 -4 10 -10z m1727 -22 c-3 -8 -6 -5 -6 6 -1 11 2 17 5 13 3 -3 4 -12 1 -19z m104 -83 c5 4 6 -1 3 -9 -5 -12 -9 -13 -19 -3 -7 7 -10 16 -7 22 3 5 7 4 10 -3 2 -7 8 -10 13 -7z m-1894 -2 c-4 -3 -10 -3 -14 0 -3 4 0 7 7 7 7 0 10 -3 7 -7z m90 1 c-3 -3 -12 -4 -19 -1 -8 3 -5 6 6 6 11 1 17 -2 13 -5z m1866 -9 c4 -8 1 -17 -6 -21 -7 -4 -9 -4 -5 1 4 4 3 14 -3 22 -7 8 -8 13 -1 13 5 0 12 -7 15 -15z m-2036 -22 c-4 -3 -7 0 -7 7 0 7 3 10 7 7 3 -4 3 -10 0 -14z m1958 -11 c-3 -3 -11 0 -18 7 -9 10 -8 11 6 5 10 -3 15 -9 12 -12z m80 -12 c3 -5 4 -10 1 -10 -3 0 -8 5 -11 10 -3 6 -4 10 -1 10 3 0 8 -4 11 -10z m2 -137 c-4 -3 -7 0 -7 7 0 7 3 10 7 7 3 -4 3 -10 0 -14z m-1980 -70 c-4 -3 -10 -3 -14 0 -3 4 0 7 7 7 7 0 10 -3 7 -7z m1868 -3 c3 -5 4 -10 1 -10 -3 0 -8 5 -11 10 -3 6 -4 10 -1 10 3 0 8 -4 11 -10z m-1845 -4 c0 -3 -5 -8 -12 -12 -7 -4 -8 -3 -4 4 7 12 16 16 16 8z m-44 -42 c1 -9 0 -13 -4 -10 -3 4 -7 14 -8 22 -1 9 0 13 4 10 3 -4 7 -14 8 -22z m79 6 c3 -5 4 -10 1 -10 -3 0 -8 5 -11 10 -3 6 -4 10 -1 10 3 0 8 -4 11 -10z m1732 -35 c0 -8 -4 -12 -9 -9 -5 3 -6 10 -3 15 9 13 12 11 12 -6z m-1807 1 c0 -3 -5 -8 -12 -12 -7 -4 -8 -3 -4 4 7 12 16 16 16 8z m77 -13 c-4 -3 -10 -3 -14 0 -3 4 0 7 7 7 7 0 10 -3 7 -7z m-50 -20 c-4 -3 -10 -3 -14 0 -3 4 0 7 7 7 7 0 10 -3 7 -7z m48 -22 c3 -5 2 -12 -3 -15 -5 -3 -9 1 -9 9 0 17 3 19 12 6z m142 2 c-4 -3 -10 -3 -14 0 -3 4 0 7 7 7 7 0 10 -3 7 -7z m-107 -7 c0 -3 -5 -8 -12 -12 -7 -4 -8 -3 -4 4 7 12 16 16 16 8z m1745 -6 c3 -5 4 -10 1 -10 -3 0 -8 5 -11 10 -3 6 -4 10 -1 10 3 0 8 -4 11 -10z m-1671 -21 c5 -4 -2 -6 -17 -6 -19 2 -23 5 -15 15 6 7 14 9 17 5 3 -4 10 -11 15 -14z m1533 4 c-4 -3 -10 -3 -14 0 -3 4 0 7 7 7 7 0 10 -3 7 -7z m-1490 -60 c-4 -3 -10 -3 -14 0 -3 4 0 7 7 7 7 0 10 -3 7 -7z m1480 0 c-4 -3 -10 -3 -14 0 -3 4 0 7 7 7 7 0 10 -3 7 -7z m-20 -20 c-4 -3 -10 -3 -14 0 -3 4 0 7 7 7 7 0 10 -3 7 -7z m-926 -43 c6 0 7 -4 4 -10 -4 -6 5 -10 20 -10 15 0 24 4 20 10 -4 6 19 10 62 9 49 -1 61 -3 43 -9 -16 -5 10 -8 77 -9 56 -1 103 3 105 8 5 14 98 20 98 6 0 -7 9 -15 20 -18 11 -3 18 -1 14 4 -3 5 1 6 9 3 7 -2 14 -11 14 -19 0 -8 -3 -13 -5 -10 -3 3 -10 -5 -17 -18 -9 -17 -8 -24 3 -32 11 -9 10 -14 -6 -29 -15 -13 -22 -14 -28 -5 -4 7 -3 10 4 5 6 -3 13 -2 16 3 4 5 -2 8 -11 6 -10 -1 -17 -8 -15 -14 2 -10 -11 -15 -30 -12 -8 1 -12 -15 -9 -31 0 -5 -3 -8 -9 -8 -5 0 -10 8 -10 18 -1 16 -1 16 -11 -1 -5 -9 -15 -17 -20 -17 -6 0 -7 5 -4 10 3 6 -1 10 -10 10 -10 0 -15 -6 -12 -12 3 -10 -24 -13 -120 -11 -68 0 -127 4 -131 9 -4 4 1 4 10 1 10 -3 20 -1 24 5 5 8 -2 9 -24 5 -17 -3 -32 -3 -35 1 -2 4 -2 1 -1 -5 5 -18 -3 -16 -37 8 -16 11 -27 24 -24 29 6 10 -20 32 -29 23 -4 -4 -9 3 -13 15 -3 12 -8 20 -12 18 -4 -3 -5 11 -3 30 4 36 32 58 60 48 8 -2 18 -4 23 -4z m484 0 c3 -5 4 -10 1 -10 -3 0 -8 5 -11 10 -3 6 -4 10 -1 10 3 0 8 -4 11 -10z m182 -7 c-4 -3 -10 -3 -14 0 -3 4 0 7 7 7 7 0 10 -3 7 -7z m-800 -60 c-4 -3 -10 -3 -14 0 -3 4 0 7 7 7 7 0 10 -3 7 -7z m620 -8 c0 -8 -4 -12 -9 -9 -5 3 -6 10 -3 15 9 13 12 11 12 -6z m-646 -28 c-10 -9 -11 -8 -5 6 3 10 9 15 12 12 3 -3 0 -11 -7 -18z m123 -15 c3 -5 -1 -9 -9 -9 -8 0 -12 4 -9 9 3 4 7 8 9 8 2 0 6 -4 9 -8z m551 -42 c3 -5 4 -10 1 -10 -3 0 -8 5 -11 10 -3 6 -4 10 -1 10 3 0 8 -4 11 -10z m-618 -7 c-4 -3 -10 -3 -14 0 -3 4 0 7 7 7 7 0 10 -3 7 -7z m93 -45 c0 -12 -6 -9 -26 13 -19 22 -19 22 4 8 12 -8 22 -17 22 -21z m458 20 c-3 -7 -12 -14 -21 -16 -12 -2 -15 1 -11 12 7 19 38 22 32 4z m-161 -5 c-4 -3 -10 -3 -14 0 -3 4 0 7 7 7 7 0 10 -3 7 -7z m30 -10 c-4 -3 -10 -3 -14 0 -3 4 0 7 7 7 7 0 10 -3 7 -7z m-180 -10 c-4 -3 -10 -3 -14 0 -3 4 0 7 7 7 7 0 10 -3 7 -7z m234 -10 c13 -16 12 -17 -3 -4 -17 13 -22 21 -14 21 2 0 10 -8 17 -17z m-38 -30 c-7 -2 -19 -2 -25 0 -7 3 -2 5 12 5 14 0 19 -2 13 -5z m-276 -20 c-4 -3 -10 -3 -14 0 -3 4 0 7 7 7 7 0 10 -3 7 -7z m278 -3 c3 -5 4 -10 1 -10 -3 0 -8 5 -11 10 -3 6 -4 10 -1 10 3 0 8 -4 11 -10z"/>
 <path d="M1128 2149 c11 -14 9 -18 -10 -24 -13 -4 -27 -7 -31 -6 -5 1 -6 -3 -2 -8 3 -6 13 -8 23 -5 13 5 14 4 3 -4 -12 -8 -14 -68 -14 -339 0 -229 -3 -330 -11 -335 -8 -5 -7 -11 2 -20 15 -15 16 -45 1 -50 -8 -3 -6 -14 5 -36 9 -18 12 -32 7 -32 -6 0 -9 -31 -8 -75 2 -42 -1 -81 -5 -88 -4 -7 1 -17 15 -24 21 -12 21 -12 2 -13 -15 0 -16 -3 -7 -9 11 -6 10 -11 -3 -25 -15 -15 -12 -20 8 -17 4 1 10 -6 13 -14 4 -10 12 -12 22 -7 10 5 29 8 44 7 15 0 24 3 22 7 -3 4 1 8 8 8 9 0 9 3 2 8 -6 4 -14 19 -18 35 -5 20 -3 27 9 27 11 0 13 8 8 33 -3 17 -9 37 -13 42 -9 12 -7 46 3 63 5 6 5 27 2 46 -4 20 -2 36 4 40 18 11 12 34 -10 41 -19 6 -20 7 -2 20 20 15 24 36 8 47 -7 5 -6 14 3 28 7 11 9 26 5 33 -4 7 -8 138 -10 292 -2 317 -3 329 -27 333 -14 3 -15 6 -4 20 12 15 11 16 -4 3 -15 -11 -21 -11 -35 0 -16 12 -17 12 -5 -2z m29 -36 c-4 -3 -10 -3 -14 0 -3 4 0 7 7 7 7 0 10 -3 7 -7z m0 -30 c-4 -3 -10 -3 -14 0 -3 4 0 7 7 7 7 0 10 -3 7 -7z m7 -628 c3 -8 1 -15 -4 -15 -6 0 -10 7 -10 15 0 8 2 15 4 15 2 0 6 -7 10 -15z m3 -77 c-3 -8 -6 -5 -6 6 -1 11 2 17 5 13 3 -3 4 -12 1 -19z m-20 -5 c-4 -3 -7 0 -7 7 0 7 3 10 7 7 3 -4 3 -10 0 -14z m10 -80 c-4 -3 -10 -3 -14 0 -3 4 0 7 7 7 7 0 10 -3 7 -7z m-20 -140 c-4 -3 -10 -3 -14 0 -3 4 0 7 7 7 7 0 10 -3 7 -7z"/>
 <path d="M790 2130 c-8 -11 -18 -16 -24 -13 -6 3 -8 3 -4 -2 4 -4 3 -15 -2 -24 -5 -9 -11 -39 -14 -66 -12 -103 -19 -135 -27 -129 -5 3 -9 -4 -9 -16 0 -13 4 -19 11 -14 8 5 10 -6 6 -37 -3 -24 -9 -74 -13 -111 -3 -37 -10 -66 -14 -63 -5 3 -6 -23 -3 -57 5 -45 3 -59 -5 -54 -8 5 -12 -1 -12 -14 0 -12 4 -19 9 -16 8 6 8 -12 -7 -161 -5 -54 -5 -83 2 -83 6 0 5 -5 -2 -12 -7 -7 -12 -20 -12 -31 0 -10 -4 -15 -10 -12 -5 3 -10 -1 -10 -10 0 -10 5 -13 12 -9 8 5 9 -3 5 -28 -3 -21 -1 -40 6 -47 6 -6 7 -11 1 -11 -17 0 -10 -55 10 -72 33 -31 58 -21 79 32 8 19 13 55 11 80 -4 41 -3 43 11 25 14 -19 14 -18 15 15 0 28 -3 32 -11 20 -8 -12 -9 -10 -5 10 3 14 6 42 6 63 0 21 3 36 8 34 4 -3 5 22 4 55 -5 72 6 151 18 143 6 -3 7 22 3 61 -5 50 -3 65 5 60 13 -8 16 14 4 30 -11 14 -2 205 10 198 7 -4 7 2 2 17 -11 33 -12 72 -3 132 5 29 5 55 0 60 -5 5 -7 16 -4 23 3 8 0 14 -6 14 -6 0 -11 -5 -11 -12 0 -6 -3 -8 -7 -4 -5 4 0 13 9 20 15 11 15 13 -1 23 -14 9 -21 7 -31 -7z m-13 -847 c-4 -3 -7 0 -7 7 0 7 3 10 7 7 3 -4 3 -10 0 -14z m-20 -145 c-3 -8 -6 -5 -6 6 -1 11 2 17 5 13 3 -3 4 -12 1 -19z"/>
 <path d="M1452 2138 c2 -7 -4 -12 -12 -10 -10 3 -9 -3 5 -19 11 -12 14 -19 6 -14 -12 7 -13 -2 -8 -54 4 -40 3 -60 -3 -56 -6 3 -10 -3 -10 -15 0 -12 4 -19 9 -16 9 6 15 -29 25 -149 4 -40 3 -53 -3 -40 -8 17 -10 15 -10 -13 -1 -22 3 -31 10 -26 8 5 9 -11 4 -56 -5 -45 -4 -61 4 -56 7 5 11 -3 11 -23 0 -16 3 -37 7 -47 4 -12 3 -15 -5 -10 -7 4 -12 1 -12 -9 0 -9 4 -14 9 -11 15 10 24 -64 9 -82 -7 -9 -8 -13 -2 -9 15 8 23 -49 13 -87 -4 -15 -3 -24 2 -20 5 3 9 -3 10 -13 0 -18 2 -40 14 -163 7 -72 28 -115 51 -106 9 3 12 1 9 -4 -14 -23 26 -8 41 15 13 20 15 39 10 88 -4 42 -3 57 4 47 8 -12 10 -9 10 13 0 16 -4 26 -9 22 -15 -9 -20 22 -26 155 -3 69 -8 134 -11 145 -4 16 -3 17 5 5 9 -12 11 -11 11 8 0 13 -4 21 -9 17 -5 -3 -12 18 -15 47 -14 142 -15 158 -6 153 6 -4 10 1 10 10 0 9 -4 14 -9 11 -13 -9 -17 11 -20 99 -1 43 -7 88 -13 98 -5 10 -7 25 -4 32 2 7 1 26 -3 42 -6 20 -3 31 8 41 14 11 14 11 -1 6 -13 -5 -16 -1 -13 15 2 12 0 19 -4 17 -5 -3 -16 3 -26 14 -17 19 -19 19 -38 3 -11 -10 -17 -13 -14 -6 4 6 3 15 -3 18 -6 4 -9 1 -8 -7z"/>
 <path d="M720 1970 c0 -7 3 -10 7 -7 3 4 3 10 0 14 -4 3 -7 0 -7 -7z"/>
 <path d="M1570 1970 c0 -7 3 -10 7 -7 3 4 3 10 0 14 -4 3 -7 0 -7 -7z"/>
 <path d="M1860 1496 c0 -9 5 -16 10 -16 6 0 10 4 10 9 0 6 -4 13 -10 16 -5 3 -10 -1 -10 -9z"/>
 <path d="M1620 1410 c0 -7 3 -10 7 -7 3 4 3 10 0 14 -4 3 -7 0 -7 -7z"/>
 <path d="M385 1260 c3 -5 8 -10 11 -10 2 0 4 5 4 10 0 6 -5 10 -11 10 -5 0 -7 -4 -4 -10z"/>
 <path d="M1500 1210 c0 -7 3 -10 7 -7 3 4 3 10 0 14 -4 3 -7 0 -7 -7z"/>
 <path d="M883 283 c4 -3 10 -3 14 0 3 4 0 7 -7 7 -7 0 -10 -3 -7 -7z"/>
 <path d="M1028 283 c7 -3 16 -2 19 1 4 3 -2 6 -13 5 -11 0 -14 -3 -6 -6z"/>
 <path d="M1794 2528 c-4 -7 -3 -8 4 -4 7 4 12 9 12 12 0 8 -9 4 -16 -8z"/>
 <path d="M1990 1500 c0 -7 3 -10 7 -7 3 4 3 10 0 14 -4 3 -7 0 -7 -7z"/>
 <path d="M2210 610 c0 -7 3 -10 7 -7 3 4 3 10 0 14 -4 3 -7 0 -7 -7z"/>
 <path d="M2131 540 c-8 -18 -8 -41 0 -46 6 -3 5 -11 -2 -20 -6 -8 -10 -17 -7 -20 3 -2 13 7 22 21 9 14 12 25 7 25 -5 0 -12 10 -14 23 -2 12 -5 20 -6 17z"/>
 <path d="M135 511 c-3 -5 -1 -12 5 -16 5 -3 10 1 10 9 0 18 -6 21 -15 7z"/>
 <path d="M254 388 c-4 -7 -3 -8 4 -4 12 7 16 16 8 16 -3 0 -8 -5 -12 -12z"/>
 <path d="M294 358 c-4 -7 -3 -8 4 -4 7 4 12 9 12 12 0 8 -9 4 -16 -8z"/>
 <path d="M1950 340 c0 -7 3 -10 7 -7 3 4 3 10 0 14 -4 3 -7 0 -7 -7z"/>
 <path d="M1920 330 c0 -5 5 -10 11 -10 5 0 7 5 4 10 -3 6 -8 10 -11 10 -2 0 -4 -4 -4 -10z"/>
 <path d="M1413 43 c4 -3 10 -3 14 0 3 4 0 7 -7 7 -7 0 -10 -3 -7 -7z"/>
 </g>
<g id="layer105" fill="#75cff3" stroke="none">
 <path d="M210 693 c1 -27 37 -101 70 -144 40 -49 147 -103 237 -119 49 -8 246 -10 673 -7 647 4 634 3 736 55 75 39 163 154 164 215 0 16 -51 17 -940 17 -889 0 -940 -1 -940 -17z"/>
 </g>
<g id="layer106" fill="#83caed" stroke="none">
 <path d="M210 693 c1 -27 36 -101 70 -142 37 -48 131 -98 217 -116 82 -18 773 -22 773 -5 0 9 -251 13 -595 10 -97 -1 -135 3 -232 25 -12 3 -35 17 -52 31 -17 14 -37 27 -43 28 -7 1 -20 6 -29 11 -22 13 -71 94 -64 105 3 5 -2 13 -11 18 -11 6 -15 16 -11 26 6 15 84 16 916 16 501 0 912 -4 915 -8 6 -9 -31 -89 -54 -116 -64 -77 -125 -112 -219 -124 -30 -4 -56 -12 -58 -18 -7 -22 123 8 192 44 76 39 164 154 165 215 0 16 -51 17 -940 17 -889 0 -940 -1 -940 -17z"/>
 <path d="M1284 441 c-16 -16 35 -21 222 -21 130 0 214 4 214 10 0 9 -427 20 -436 11z"/>
 </g>

</svg>